<svg xmlns="http://www.w3.org/2000/svg" xmlns:xlink="http://www.w3.org/1999/xlink" width="700" zoomAndPan="magnify" viewBox="0 0 375 374.999991" height="700" preserveAspectRatio="xMidYMid meet" version="1.0"><defs><clipPath id="49a4dc0f4a"><path d="M 120.179688 120.179688 L 255 120.179688 L 255 255 L 120.179688 255 Z M 120.179688 120.179688 " clip-rule="nonzero"/></clipPath></defs><g clip-path="url(#49a4dc0f4a)"><path fill="#f2f0ef" d="M 187.394531 120.089844 C 186.953125 120.09375 186.515625 120.144531 186.082031 120.238281 C 185.652344 120.332031 185.234375 120.464844 184.828125 120.640625 C 184.421875 120.816406 184.039062 121.027344 183.675781 121.277344 C 183.3125 121.527344 182.976562 121.8125 182.667969 122.128906 C 182.359375 122.445312 182.085938 122.789062 181.847656 123.160156 C 181.609375 123.53125 181.40625 123.921875 181.242188 124.332031 C 181.078125 124.742188 180.957031 125.164062 180.878906 125.597656 C 180.796875 126.03125 180.761719 126.46875 180.765625 126.910156 L 180.765625 133.972656 C 146.808594 137.363281 120.179688 166.128906 120.179688 200.960938 C 120.175781 201.410156 120.210938 201.851562 120.292969 202.289062 C 120.375 202.726562 120.5 203.152344 120.664062 203.566406 C 120.832031 203.980469 121.035156 204.375 121.28125 204.75 C 121.527344 205.121094 121.804688 205.464844 122.117188 205.785156 C 122.429688 206.101562 122.773438 206.386719 123.140625 206.636719 C 123.511719 206.886719 123.902344 207.097656 124.3125 207.269531 C 124.726562 207.441406 125.148438 207.570312 125.585938 207.660156 C 126.023438 207.746094 126.464844 207.789062 126.910156 207.789062 C 127.359375 207.789062 127.800781 207.746094 128.238281 207.660156 C 128.675781 207.570312 129.097656 207.441406 129.511719 207.269531 C 129.921875 207.097656 130.3125 206.886719 130.683594 206.636719 C 131.050781 206.386719 131.394531 206.101562 131.707031 205.785156 C 132.019531 205.464844 132.296875 205.121094 132.542969 204.75 C 132.789062 204.375 132.992188 203.980469 133.160156 203.566406 C 133.324219 203.152344 133.449219 202.726562 133.53125 202.289062 C 133.613281 201.851562 133.648438 201.410156 133.644531 200.960938 C 133.644531 193.445312 139.589844 187.5 147.109375 187.5 C 154.625 187.5 160.570312 193.445312 160.570312 200.960938 C 160.566406 201.382812 160.597656 201.804688 160.671875 202.21875 C 160.746094 202.632812 160.855469 203.039062 161.007812 203.433594 C 161.15625 203.828125 161.339844 204.207031 161.5625 204.566406 C 161.78125 204.925781 162.03125 205.261719 162.316406 205.574219 C 162.601562 205.886719 162.910156 206.171875 163.246094 206.425781 C 163.585938 206.679688 163.941406 206.898438 164.320312 207.085938 C 164.699219 207.273438 165.089844 207.421875 165.496094 207.535156 C 165.902344 207.648438 166.316406 207.722656 166.738281 207.761719 C 166.960938 207.78125 167.183594 207.789062 167.410156 207.785156 C 167.851562 207.777344 168.285156 207.730469 168.71875 207.636719 C 169.148438 207.542969 169.566406 207.410156 169.972656 207.234375 C 170.378906 207.058594 170.761719 206.847656 171.125 206.597656 C 171.488281 206.34375 171.824219 206.0625 172.132812 205.746094 C 172.441406 205.429688 172.714844 205.085938 172.953125 204.714844 C 173.195312 204.34375 173.394531 203.953125 173.558594 203.542969 C 173.722656 203.132812 173.84375 202.710938 173.925781 202.277344 C 174.003906 201.839844 174.039062 201.402344 174.035156 200.960938 C 174.035156 193.445312 179.980469 187.5 187.5 187.5 C 195.015625 187.5 200.960938 193.445312 200.960938 200.960938 C 200.957031 201.410156 200.992188 201.851562 201.074219 202.289062 C 201.15625 202.726562 201.28125 203.152344 201.445312 203.566406 C 201.613281 203.980469 201.820312 204.375 202.0625 204.75 C 202.308594 205.121094 202.585938 205.464844 202.898438 205.785156 C 203.214844 206.101562 203.554688 206.386719 203.925781 206.636719 C 204.292969 206.886719 204.683594 207.097656 205.09375 207.269531 C 205.507812 207.441406 205.929688 207.570312 206.367188 207.660156 C 206.804688 207.746094 207.246094 207.789062 207.695312 207.789062 C 208.140625 207.789062 208.582031 207.746094 209.019531 207.660156 C 209.457031 207.570312 209.882812 207.441406 210.292969 207.269531 C 210.703125 207.097656 211.09375 206.886719 211.464844 206.636719 C 211.832031 206.386719 212.175781 206.101562 212.488281 205.785156 C 212.800781 205.464844 213.082031 205.121094 213.324219 204.75 C 213.570312 204.375 213.773438 203.980469 213.941406 203.566406 C 214.109375 203.152344 214.230469 202.726562 214.3125 202.289062 C 214.394531 201.851562 214.433594 201.410156 214.425781 200.960938 C 214.425781 193.445312 220.371094 187.5 227.890625 187.5 C 235.40625 187.5 241.351562 193.445312 241.351562 200.960938 C 241.347656 201.410156 241.382812 201.851562 241.464844 202.289062 C 241.546875 202.726562 241.671875 203.152344 241.839844 203.566406 C 242.003906 203.980469 242.210938 204.375 242.453125 204.75 C 242.699219 205.121094 242.976562 205.464844 243.289062 205.785156 C 243.605469 206.101562 243.945312 206.386719 244.316406 206.636719 C 244.683594 206.886719 245.074219 207.097656 245.488281 207.269531 C 245.898438 207.441406 246.324219 207.570312 246.761719 207.660156 C 247.199219 207.746094 247.640625 207.789062 248.085938 207.789062 C 248.53125 207.789062 248.972656 207.746094 249.410156 207.660156 C 249.847656 207.570312 250.273438 207.441406 250.683594 207.269531 C 251.09375 207.097656 251.484375 206.886719 251.855469 206.636719 C 252.226562 206.386719 252.566406 206.101562 252.878906 205.785156 C 253.191406 205.464844 253.472656 205.121094 253.714844 204.75 C 253.960938 204.375 254.164062 203.980469 254.332031 203.566406 C 254.5 203.152344 254.621094 202.726562 254.703125 202.289062 C 254.785156 201.851562 254.824219 201.410156 254.816406 200.960938 C 254.816406 166.128906 228.1875 137.363281 194.230469 133.972656 L 194.230469 126.910156 C 194.238281 126.460938 194.199219 126.015625 194.113281 125.574219 C 194.03125 125.128906 193.90625 124.699219 193.734375 124.28125 C 193.566406 123.867188 193.355469 123.46875 193.105469 123.09375 C 192.855469 122.71875 192.574219 122.371094 192.253906 122.054688 C 191.9375 121.738281 191.589844 121.453125 191.214844 121.203125 C 190.835938 120.957031 190.441406 120.746094 190.023438 120.578125 C 189.605469 120.410156 189.175781 120.285156 188.734375 120.203125 C 188.289062 120.117188 187.84375 120.082031 187.394531 120.089844 Z M 187.394531 194.136719 C 186.953125 194.144531 186.515625 194.195312 186.082031 194.289062 C 185.652344 194.378906 185.234375 194.515625 184.828125 194.691406 C 184.421875 194.863281 184.039062 195.078125 183.675781 195.328125 C 183.3125 195.578125 182.976562 195.863281 182.667969 196.179688 C 182.359375 196.496094 182.085938 196.839844 181.847656 197.210938 C 181.609375 197.582031 181.40625 197.972656 181.242188 198.382812 C 181.078125 198.792969 180.957031 199.214844 180.878906 199.648438 C 180.796875 200.082031 180.761719 200.519531 180.765625 200.960938 L 180.765625 234.621094 C 180.765625 238.425781 177.839844 241.351562 174.035156 241.351562 C 170.230469 241.351562 167.304688 238.425781 167.304688 234.621094 C 167.308594 234.175781 167.273438 233.734375 167.191406 233.292969 C 167.109375 232.855469 166.984375 232.429688 166.816406 232.015625 C 166.652344 231.601562 166.445312 231.207031 166.203125 230.835938 C 165.957031 230.460938 165.679688 230.117188 165.367188 229.800781 C 165.050781 229.480469 164.710938 229.199219 164.339844 228.949219 C 163.972656 228.699219 163.582031 228.488281 163.167969 228.316406 C 162.757812 228.144531 162.332031 228.011719 161.894531 227.925781 C 161.460938 227.835938 161.015625 227.792969 160.570312 227.792969 C 160.125 227.792969 159.683594 227.835938 159.246094 227.925781 C 158.808594 228.011719 158.382812 228.144531 157.972656 228.316406 C 157.5625 228.488281 157.171875 228.699219 156.800781 228.949219 C 156.429688 229.199219 156.089844 229.480469 155.777344 229.800781 C 155.464844 230.117188 155.183594 230.460938 154.941406 230.835938 C 154.695312 231.207031 154.492188 231.601562 154.324219 232.015625 C 154.15625 232.429688 154.035156 232.855469 153.953125 233.292969 C 153.871094 233.734375 153.832031 234.175781 153.839844 234.621094 C 153.839844 245.695312 162.960938 254.816406 174.035156 254.816406 C 185.109375 254.816406 194.230469 245.695312 194.230469 234.621094 L 194.230469 200.960938 C 194.238281 200.511719 194.199219 200.066406 194.113281 199.621094 C 194.03125 199.179688 193.90625 198.75 193.734375 198.332031 C 193.566406 197.917969 193.355469 197.519531 193.105469 197.144531 C 192.855469 196.769531 192.574219 196.421875 192.253906 196.105469 C 191.9375 195.785156 191.589844 195.503906 191.214844 195.253906 C 190.835938 195.007812 190.441406 194.796875 190.023438 194.628906 C 189.605469 194.460938 189.175781 194.335938 188.734375 194.25 C 188.289062 194.167969 187.84375 194.132812 187.394531 194.136719 Z M 187.394531 194.136719 " fill-opacity="1" fill-rule="nonzero"/></g></svg>