<svg xmlns="http://www.w3.org/2000/svg" xmlns:xlink="http://www.w3.org/1999/xlink" width="500" zoomAndPan="magnify" viewBox="0 0 375 374.999991" height="500" preserveAspectRatio="xMidYMid meet" version="1.0"><defs><clipPath id="e555eec4d2"><path d="M 151.070312 151.070312 L 223.820312 151.070312 L 223.820312 223.820312 L 151.070312 223.820312 Z M 151.070312 151.070312 " clip-rule="nonzero"/></clipPath></defs><g clip-path="url(#e555eec4d2)"><path fill="#f2f0ef" d="M 187.4375 151.019531 C 186.957031 151.027344 186.496094 151.125 186.050781 151.316406 C 185.609375 151.507812 185.21875 151.777344 184.882812 152.125 C 184.546875 152.46875 184.289062 152.867188 184.109375 153.316406 C 183.933594 153.761719 183.847656 154.230469 183.855469 154.710938 L 183.855469 158.53125 C 165.476562 160.367188 151.070312 175.933594 151.070312 194.78125 C 151.0625 195.269531 151.148438 195.738281 151.332031 196.191406 C 151.511719 196.644531 151.773438 197.042969 152.117188 197.390625 C 152.460938 197.738281 152.855469 198.007812 153.304688 198.195312 C 153.753906 198.382812 154.222656 198.476562 154.710938 198.476562 C 155.199219 198.476562 155.667969 198.382812 156.117188 198.195312 C 156.566406 198.007812 156.964844 197.738281 157.304688 197.390625 C 157.648438 197.042969 157.910156 196.644531 158.09375 196.191406 C 158.273438 195.738281 158.359375 195.269531 158.355469 194.78125 C 158.355469 190.714844 161.570312 187.496094 165.640625 187.496094 C 169.707031 187.496094 172.925781 190.714844 172.925781 194.78125 C 172.917969 195.242188 172.996094 195.6875 173.160156 196.121094 C 173.324219 196.550781 173.558594 196.9375 173.871094 197.277344 C 174.179688 197.617188 174.539062 197.890625 174.953125 198.097656 C 175.367188 198.300781 175.804688 198.421875 176.261719 198.460938 C 176.382812 198.472656 176.503906 198.476562 176.625 198.472656 C 177.105469 198.46875 177.570312 198.367188 178.011719 198.175781 C 178.457031 197.984375 178.84375 197.714844 179.179688 197.371094 C 179.519531 197.023438 179.773438 196.625 179.953125 196.179688 C 180.132812 195.730469 180.21875 195.265625 180.210938 194.78125 C 180.210938 190.714844 183.429688 187.496094 187.496094 187.496094 C 191.5625 187.496094 194.78125 190.714844 194.78125 194.78125 C 194.773438 195.269531 194.863281 195.738281 195.042969 196.191406 C 195.226562 196.644531 195.488281 197.042969 195.832031 197.390625 C 196.171875 197.738281 196.570312 198.007812 197.019531 198.195312 C 197.46875 198.382812 197.9375 198.476562 198.425781 198.476562 C 198.914062 198.476562 199.382812 198.382812 199.832031 198.195312 C 200.28125 198.007812 200.675781 197.738281 201.019531 197.390625 C 201.359375 197.042969 201.625 196.644531 201.804688 196.191406 C 201.988281 195.738281 202.074219 195.269531 202.066406 194.78125 C 202.066406 190.714844 205.285156 187.496094 209.351562 187.496094 C 213.421875 187.496094 216.636719 190.714844 216.636719 194.78125 C 216.632812 195.269531 216.71875 195.738281 216.902344 196.191406 C 217.082031 196.644531 217.34375 197.042969 217.6875 197.390625 C 218.03125 197.738281 218.425781 198.007812 218.875 198.195312 C 219.324219 198.382812 219.792969 198.476562 220.28125 198.476562 C 220.769531 198.476562 221.238281 198.382812 221.6875 198.195312 C 222.136719 198.007812 222.535156 197.738281 222.875 197.390625 C 223.21875 197.042969 223.480469 196.644531 223.660156 196.191406 C 223.84375 195.738281 223.929688 195.269531 223.925781 194.78125 C 223.925781 175.933594 209.515625 160.367188 191.140625 158.53125 L 191.140625 154.710938 C 191.140625 154.46875 191.121094 154.226562 191.078125 153.988281 C 191.03125 153.746094 190.960938 153.515625 190.871094 153.289062 C 190.777344 153.0625 190.664062 152.847656 190.53125 152.644531 C 190.394531 152.441406 190.242188 152.253906 190.070312 152.082031 C 189.898438 151.910156 189.710938 151.757812 189.507812 151.621094 C 189.304688 151.488281 189.089844 151.375 188.863281 151.285156 C 188.636719 151.191406 188.402344 151.125 188.164062 151.082031 C 187.925781 151.035156 187.683594 151.015625 187.4375 151.019531 Z M 187.4375 191.089844 C 186.957031 191.097656 186.496094 191.195312 186.050781 191.386719 C 185.609375 191.578125 185.21875 191.847656 184.882812 192.195312 C 184.546875 192.539062 184.289062 192.9375 184.109375 193.386719 C 183.933594 193.835938 183.847656 194.300781 183.855469 194.78125 L 183.855469 212.996094 C 183.855469 215.054688 182.269531 216.636719 180.210938 216.636719 C 178.152344 216.636719 176.566406 215.054688 176.566406 212.996094 C 176.574219 212.507812 176.488281 212.039062 176.304688 211.585938 C 176.125 211.132812 175.863281 210.734375 175.519531 210.386719 C 175.175781 210.039062 174.78125 209.773438 174.332031 209.582031 C 173.882812 209.394531 173.414062 209.300781 172.925781 209.300781 C 172.4375 209.300781 171.96875 209.394531 171.519531 209.582031 C 171.070312 209.773438 170.671875 210.039062 170.332031 210.386719 C 169.988281 210.734375 169.726562 211.132812 169.542969 211.585938 C 169.363281 212.039062 169.277344 212.507812 169.28125 212.996094 C 169.28125 218.988281 174.21875 223.925781 180.210938 223.925781 C 186.203125 223.925781 191.140625 218.988281 191.140625 212.996094 L 191.140625 194.78125 C 191.140625 194.539062 191.121094 194.296875 191.078125 194.058594 C 191.03125 193.816406 190.960938 193.585938 190.871094 193.359375 C 190.777344 193.132812 190.664062 192.917969 190.53125 192.714844 C 190.394531 192.511719 190.242188 192.324219 190.070312 192.152344 C 189.898438 191.980469 189.710938 191.828125 189.507812 191.695312 C 189.304688 191.558594 189.089844 191.445312 188.863281 191.355469 C 188.636719 191.261719 188.402344 191.195312 188.164062 191.152344 C 187.925781 191.105469 187.683594 191.085938 187.4375 191.089844 Z M 187.4375 191.089844 " fill-opacity="1" fill-rule="nonzero"/></g></svg>