<svg xmlns="http://www.w3.org/2000/svg" xmlns:xlink="http://www.w3.org/1999/xlink" width="500" zoomAndPan="magnify" viewBox="0 0 375 374.999991" height="500" preserveAspectRatio="xMidYMid meet" version="1.0"><defs><g/><clipPath id="71f4224cf3"><path d="M 29.25 146.734375 L 102 146.734375 L 102 219.484375 L 29.25 219.484375 Z M 29.25 146.734375 " clip-rule="nonzero"/></clipPath></defs><g clip-path="url(#71f4224cf3)"><path fill="#f2f0ef" d="M 65.621094 146.6875 C 65.136719 146.695312 64.675781 146.792969 64.234375 146.984375 C 63.789062 147.175781 63.398438 147.445312 63.0625 147.789062 C 62.726562 148.136719 62.472656 148.535156 62.292969 148.980469 C 62.113281 149.429688 62.027344 149.894531 62.035156 150.378906 L 62.035156 154.199219 C 43.660156 156.035156 29.25 171.601562 29.25 190.449219 C 29.242188 190.9375 29.332031 191.40625 29.511719 191.859375 C 29.695312 192.3125 29.957031 192.710938 30.296875 193.058594 C 30.640625 193.40625 31.035156 193.671875 31.488281 193.863281 C 31.9375 194.050781 32.40625 194.144531 32.894531 194.144531 C 33.378906 194.144531 33.847656 194.050781 34.300781 193.863281 C 34.75 193.671875 35.144531 193.40625 35.488281 193.058594 C 35.828125 192.710938 36.089844 192.3125 36.273438 191.859375 C 36.453125 191.40625 36.542969 190.9375 36.535156 190.449219 C 36.535156 186.382812 39.753906 183.164062 43.820312 183.164062 C 47.890625 183.164062 51.105469 186.382812 51.105469 190.449219 C 51.101562 190.910156 51.179688 191.355469 51.34375 191.785156 C 51.503906 192.21875 51.742188 192.605469 52.050781 192.945312 C 52.359375 193.285156 52.722656 193.558594 53.136719 193.761719 C 53.546875 193.96875 53.984375 194.089844 54.445312 194.128906 C 54.5625 194.136719 54.683594 194.144531 54.804688 194.140625 C 55.289062 194.132812 55.75 194.035156 56.195312 193.84375 C 56.636719 193.652344 57.027344 193.382812 57.363281 193.035156 C 57.699219 192.691406 57.957031 192.292969 58.132812 191.84375 C 58.3125 191.398438 58.398438 190.929688 58.390625 190.449219 C 58.390625 186.382812 61.609375 183.164062 65.679688 183.164062 C 69.746094 183.164062 72.964844 186.382812 72.964844 190.449219 C 72.957031 190.9375 73.042969 191.40625 73.226562 191.859375 C 73.40625 192.3125 73.667969 192.710938 74.011719 193.058594 C 74.355469 193.40625 74.75 193.671875 75.199219 193.863281 C 75.648438 194.050781 76.117188 194.144531 76.605469 194.144531 C 77.09375 194.144531 77.5625 194.050781 78.011719 193.863281 C 78.460938 193.671875 78.859375 193.40625 79.199219 193.058594 C 79.542969 192.710938 79.804688 192.3125 79.988281 191.859375 C 80.167969 191.40625 80.253906 190.9375 80.25 190.449219 C 80.25 186.382812 83.464844 183.164062 87.535156 183.164062 C 91.601562 183.164062 94.820312 186.382812 94.820312 190.449219 C 94.8125 190.9375 94.902344 191.40625 95.082031 191.859375 C 95.265625 192.3125 95.527344 192.710938 95.867188 193.058594 C 96.210938 193.40625 96.605469 193.671875 97.054688 193.863281 C 97.507812 194.050781 97.976562 194.144531 98.460938 194.144531 C 98.949219 194.144531 99.417969 194.050781 99.867188 193.863281 C 100.320312 193.671875 100.714844 193.40625 101.058594 193.058594 C 101.398438 192.710938 101.660156 192.3125 101.84375 191.859375 C 102.023438 191.40625 102.113281 190.9375 102.105469 190.449219 C 102.105469 171.601562 87.695312 156.035156 69.320312 154.199219 L 69.320312 150.378906 C 69.324219 150.136719 69.304688 149.894531 69.257812 149.652344 C 69.210938 149.414062 69.144531 149.183594 69.050781 148.957031 C 68.960938 148.730469 68.847656 148.515625 68.710938 148.3125 C 68.578125 148.109375 68.421875 147.921875 68.25 147.75 C 68.078125 147.578125 67.890625 147.425781 67.6875 147.289062 C 67.484375 147.15625 67.269531 147.042969 67.042969 146.953125 C 66.816406 146.859375 66.585938 146.792969 66.34375 146.746094 C 66.105469 146.703125 65.863281 146.683594 65.621094 146.6875 Z M 65.621094 186.757812 C 65.136719 186.765625 64.675781 186.863281 64.234375 187.054688 C 63.789062 187.246094 63.398438 187.515625 63.0625 187.859375 C 62.726562 188.207031 62.472656 188.605469 62.292969 189.054688 C 62.113281 189.5 62.027344 189.964844 62.035156 190.449219 L 62.035156 208.664062 C 62.035156 210.722656 60.449219 212.304688 58.390625 212.304688 C 56.332031 212.304688 54.75 210.722656 54.75 208.664062 C 54.757812 208.175781 54.667969 207.707031 54.488281 207.253906 C 54.304688 206.800781 54.042969 206.402344 53.699219 206.054688 C 53.359375 205.707031 52.960938 205.4375 52.511719 205.25 C 52.0625 205.0625 51.59375 204.96875 51.105469 204.96875 C 50.617188 204.96875 50.148438 205.0625 49.699219 205.25 C 49.25 205.4375 48.855469 205.707031 48.511719 206.054688 C 48.171875 206.402344 47.90625 206.800781 47.726562 207.253906 C 47.542969 207.707031 47.457031 208.175781 47.464844 208.664062 C 47.464844 214.65625 52.398438 219.589844 58.390625 219.589844 C 64.382812 219.589844 69.320312 214.65625 69.320312 208.664062 L 69.320312 190.449219 C 69.324219 190.207031 69.304688 189.964844 69.257812 189.722656 C 69.210938 189.484375 69.144531 189.253906 69.050781 189.027344 C 68.960938 188.800781 68.847656 188.585938 68.710938 188.382812 C 68.578125 188.179688 68.421875 187.992188 68.25 187.820312 C 68.078125 187.648438 67.890625 187.496094 67.6875 187.359375 C 67.484375 187.226562 67.269531 187.113281 67.042969 187.023438 C 66.816406 186.929688 66.585938 186.863281 66.34375 186.816406 C 66.105469 186.773438 65.863281 186.753906 65.621094 186.757812 Z M 65.621094 186.757812 " fill-opacity="1" fill-rule="nonzero"/></g><g fill="#f2f0ef" fill-opacity="1"><g transform="translate(117.268181, 200.624987)"><g><path d="M 21.828125 -22.4375 C 22.359375 -22.4375 22.820312 -22.25 23.21875 -21.875 C 23.613281 -21.5 23.8125 -21.035156 23.8125 -20.484375 L 23.8125 -1.953125 C 23.8125 -1.398438 23.628906 -0.9375 23.265625 -0.5625 C 22.898438 -0.1875 22.421875 0 21.828125 0 C 21.222656 0 20.734375 -0.179688 20.359375 -0.546875 C 19.992188 -0.910156 19.8125 -1.378906 19.8125 -1.953125 L 19.8125 -14.84375 L 14.53125 -6.78125 C 14.3125 -6.53125 14.0625 -6.320312 13.78125 -6.15625 C 13.507812 -6 13.222656 -5.929688 12.921875 -5.953125 C 12.648438 -5.929688 12.375 -6 12.09375 -6.15625 C 11.820312 -6.320312 11.578125 -6.53125 11.359375 -6.78125 L 6.078125 -15.140625 L 6.078125 -1.953125 C 6.078125 -1.378906 5.90625 -0.910156 5.5625 -0.546875 C 5.226562 -0.179688 4.78125 0 4.21875 0 C 3.6875 0 3.25 -0.1875 2.90625 -0.5625 C 2.570312 -0.9375 2.40625 -1.398438 2.40625 -1.953125 L 2.40625 -20.484375 C 2.40625 -21.015625 2.597656 -21.472656 2.984375 -21.859375 C 3.378906 -22.242188 3.859375 -22.4375 4.421875 -22.4375 C 4.734375 -22.4375 5.050781 -22.351562 5.375 -22.1875 C 5.695312 -22.03125 5.941406 -21.820312 6.109375 -21.5625 L 13.09375 -10.84375 L 20.25 -21.5625 C 20.425781 -21.820312 20.65625 -22.03125 20.9375 -22.1875 C 21.226562 -22.351562 21.523438 -22.4375 21.828125 -22.4375 Z M 21.828125 -22.4375 "/></g></g></g><g fill="#f2f0ef" fill-opacity="1"><g transform="translate(142.381735, 200.624987)"><g><path d="M 14.78125 -17.125 C 15.332031 -17.125 15.789062 -16.9375 16.15625 -16.5625 C 16.519531 -16.1875 16.703125 -15.722656 16.703125 -15.171875 L 16.703125 -1.5625 C 16.703125 1.207031 15.953125 3.226562 14.453125 4.5 C 12.960938 5.769531 10.972656 6.40625 8.484375 6.40625 C 7.753906 6.40625 7.007812 6.34375 6.25 6.21875 C 5.5 6.101562 4.890625 5.953125 4.421875 5.765625 C 3.367188 5.316406 2.84375 4.695312 2.84375 3.90625 C 2.84375 3.757812 2.875 3.585938 2.9375 3.390625 C 3.070312 2.921875 3.289062 2.5625 3.59375 2.3125 C 3.90625 2.070312 4.242188 1.953125 4.609375 1.953125 C 4.816406 1.953125 5.019531 1.984375 5.21875 2.046875 C 5.363281 2.109375 5.625 2.210938 6 2.359375 C 6.375 2.515625 6.769531 2.640625 7.1875 2.734375 C 7.601562 2.828125 8.035156 2.875 8.484375 2.875 C 9.992188 2.875 11.101562 2.546875 11.8125 1.890625 C 12.53125 1.242188 12.890625 0.132812 12.890625 -1.4375 L 12.890625 -1.765625 C 11.785156 -0.378906 10.0625 0.3125 7.71875 0.3125 C 6.601562 0.3125 5.617188 0.0507812 4.765625 -0.46875 C 3.910156 -0.988281 3.25 -1.710938 2.78125 -2.640625 C 2.3125 -3.566406 2.078125 -4.628906 2.078125 -5.828125 L 2.078125 -15.171875 C 2.078125 -15.722656 2.257812 -16.1875 2.625 -16.5625 C 2.988281 -16.9375 3.445312 -17.125 4 -17.125 C 4.550781 -17.125 5.007812 -16.9375 5.375 -16.5625 C 5.738281 -16.1875 5.921875 -15.722656 5.921875 -15.171875 L 5.921875 -6.96875 C 5.921875 -5.625 6.210938 -4.660156 6.796875 -4.078125 C 7.390625 -3.492188 8.25 -3.203125 9.375 -3.203125 C 10.488281 -3.203125 11.347656 -3.523438 11.953125 -4.171875 C 12.554688 -4.828125 12.859375 -5.757812 12.859375 -6.96875 L 12.859375 -15.171875 C 12.859375 -15.722656 13.039062 -16.1875 13.40625 -16.5625 C 13.769531 -16.9375 14.226562 -17.125 14.78125 -17.125 Z M 14.78125 -17.125 "/></g></g></g><g fill="#f2f0ef" fill-opacity="1"><g transform="translate(160.073121, 200.624987)"><g><path d="M 27.578125 -22.5 C 28.097656 -22.5 28.570312 -22.300781 29 -21.90625 C 29.4375 -21.507812 29.65625 -21.015625 29.65625 -20.421875 C 29.65625 -20.222656 29.625 -20.007812 29.5625 -19.78125 L 23.265625 -1.21875 C 23.140625 -0.851562 22.914062 -0.5625 22.59375 -0.34375 C 22.269531 -0.132812 21.914062 -0.0195312 21.53125 0 C 21.144531 0 20.78125 -0.101562 20.4375 -0.3125 C 20.101562 -0.53125 19.835938 -0.84375 19.640625 -1.25 L 15.109375 -11.578125 L 10.53125 -1.25 C 10.332031 -0.84375 10.0625 -0.53125 9.71875 -0.3125 C 9.382812 -0.101562 9.023438 0 8.640625 0 C 8.253906 -0.0195312 7.898438 -0.132812 7.578125 -0.34375 C 7.265625 -0.5625 7.039062 -0.851562 6.90625 -1.21875 L 0.609375 -19.78125 C 0.546875 -20.007812 0.515625 -20.222656 0.515625 -20.421875 C 0.515625 -21.015625 0.734375 -21.507812 1.171875 -21.90625 C 1.609375 -22.300781 2.09375 -22.5 2.625 -22.5 C 3.050781 -22.5 3.429688 -22.382812 3.765625 -22.15625 C 4.109375 -21.9375 4.347656 -21.632812 4.484375 -21.25 L 9.25 -6.78125 L 13.40625 -16.765625 C 13.570312 -17.148438 13.816406 -17.453125 14.140625 -17.671875 C 14.460938 -17.898438 14.828125 -18.003906 15.234375 -17.984375 C 15.640625 -18.003906 15.992188 -17.898438 16.296875 -17.671875 C 16.609375 -17.453125 16.851562 -17.148438 17.03125 -16.765625 L 20.953125 -6.875 L 25.703125 -21.25 C 25.828125 -21.632812 26.0625 -21.9375 26.40625 -22.15625 C 26.757812 -22.382812 27.148438 -22.5 27.578125 -22.5 Z M 27.578125 -22.5 "/></g></g></g><g fill="#f2f0ef" fill-opacity="1"><g transform="translate(189.153701, 200.624987)"><g><path d="M 17.4375 -8.953125 C 17.414062 -8.441406 17.210938 -8.023438 16.828125 -7.703125 C 16.441406 -7.390625 15.992188 -7.234375 15.484375 -7.234375 L 4.921875 -7.234375 C 5.179688 -5.972656 5.769531 -4.984375 6.6875 -4.265625 C 7.601562 -3.554688 8.640625 -3.203125 9.796875 -3.203125 C 10.671875 -3.203125 11.351562 -3.28125 11.84375 -3.4375 C 12.332031 -3.601562 12.71875 -3.773438 13 -3.953125 C 13.289062 -4.128906 13.488281 -4.25 13.59375 -4.3125 C 13.976562 -4.507812 14.34375 -4.609375 14.6875 -4.609375 C 15.132812 -4.609375 15.515625 -4.445312 15.828125 -4.125 C 16.148438 -3.800781 16.3125 -3.429688 16.3125 -3.015625 C 16.3125 -2.429688 16.015625 -1.90625 15.421875 -1.4375 C 14.828125 -0.945312 14.023438 -0.53125 13.015625 -0.1875 C 12.015625 0.144531 11.003906 0.3125 9.984375 0.3125 C 8.191406 0.3125 6.628906 -0.0546875 5.296875 -0.796875 C 3.960938 -1.546875 2.929688 -2.578125 2.203125 -3.890625 C 1.484375 -5.203125 1.125 -6.675781 1.125 -8.3125 C 1.125 -10.15625 1.503906 -11.769531 2.265625 -13.15625 C 3.035156 -14.539062 4.050781 -15.597656 5.3125 -16.328125 C 6.570312 -17.066406 7.914062 -17.4375 9.34375 -17.4375 C 10.75 -17.4375 12.078125 -17.050781 13.328125 -16.28125 C 14.578125 -15.519531 15.570312 -14.488281 16.3125 -13.1875 C 17.0625 -11.882812 17.4375 -10.472656 17.4375 -8.953125 Z M 9.34375 -13.921875 C 6.863281 -13.921875 5.398438 -12.757812 4.953125 -10.4375 L 13.34375 -10.4375 L 13.34375 -10.65625 C 13.257812 -11.550781 12.820312 -12.316406 12.03125 -12.953125 C 11.238281 -13.597656 10.34375 -13.921875 9.34375 -13.921875 Z M 9.34375 -13.921875 "/></g></g></g><g fill="#f2f0ef" fill-opacity="1"><g transform="translate(206.621137, 200.624987)"><g><path d="M 15.9375 -17.4375 C 16.488281 -17.4375 16.945312 -17.253906 17.3125 -16.890625 C 17.675781 -16.535156 17.859375 -16.066406 17.859375 -15.484375 L 17.859375 -1.953125 C 17.859375 -1.398438 17.675781 -0.9375 17.3125 -0.5625 C 16.945312 -0.1875 16.488281 0 15.9375 0 C 15.382812 0 14.929688 -0.179688 14.578125 -0.546875 C 14.222656 -0.910156 14.035156 -1.367188 14.015625 -1.921875 C 13.484375 -1.296875 12.765625 -0.765625 11.859375 -0.328125 C 10.953125 0.0976562 9.992188 0.3125 8.984375 0.3125 C 7.515625 0.3125 6.179688 -0.0625 4.984375 -0.8125 C 3.796875 -1.570312 2.851562 -2.625 2.15625 -3.96875 C 1.46875 -5.3125 1.125 -6.835938 1.125 -8.546875 C 1.125 -10.253906 1.460938 -11.785156 2.140625 -13.140625 C 2.828125 -14.492188 3.757812 -15.546875 4.9375 -16.296875 C 6.125 -17.054688 7.429688 -17.4375 8.859375 -17.4375 C 9.890625 -17.4375 10.851562 -17.25 11.75 -16.875 C 12.644531 -16.5 13.398438 -16.023438 14.015625 -15.453125 L 14.015625 -15.484375 C 14.015625 -16.035156 14.195312 -16.5 14.5625 -16.875 C 14.925781 -17.25 15.382812 -17.4375 15.9375 -17.4375 Z M 9.46875 -3.203125 C 10.851562 -3.203125 11.984375 -3.707031 12.859375 -4.71875 C 13.734375 -5.726562 14.171875 -7.003906 14.171875 -8.546875 C 14.171875 -10.078125 13.734375 -11.351562 12.859375 -12.375 C 11.984375 -13.40625 10.851562 -13.921875 9.46875 -13.921875 C 8.101562 -13.921875 6.984375 -13.40625 6.109375 -12.375 C 5.234375 -11.351562 4.796875 -10.078125 4.796875 -8.546875 C 4.796875 -7.003906 5.226562 -5.726562 6.09375 -4.71875 C 6.957031 -3.707031 8.082031 -3.203125 9.46875 -3.203125 Z M 9.46875 -3.203125 "/></g></g></g><g fill="#f2f0ef" fill-opacity="1"><g transform="translate(225.464233, 200.624987)"><g><path d="M 10.34375 -3.609375 C 10.632812 -3.609375 10.898438 -3.460938 11.140625 -3.171875 C 11.390625 -2.890625 11.515625 -2.515625 11.515625 -2.046875 C 11.515625 -1.472656 11.195312 -0.988281 10.5625 -0.59375 C 9.9375 -0.195312 9.234375 0 8.453125 0 C 7.128906 0 6.015625 -0.28125 5.109375 -0.84375 C 4.203125 -1.414062 3.75 -2.617188 3.75 -4.453125 L 3.75 -13.28125 L 2.265625 -13.28125 C 1.753906 -13.28125 1.328125 -13.445312 0.984375 -13.78125 C 0.648438 -14.125 0.484375 -14.554688 0.484375 -15.078125 C 0.484375 -15.566406 0.648438 -15.972656 0.984375 -16.296875 C 1.328125 -16.628906 1.753906 -16.796875 2.265625 -16.796875 L 3.75 -16.796875 L 3.75 -18.84375 C 3.75 -19.40625 3.929688 -19.867188 4.296875 -20.234375 C 4.671875 -20.609375 5.140625 -20.796875 5.703125 -20.796875 C 6.234375 -20.796875 6.675781 -20.609375 7.03125 -20.234375 C 7.394531 -19.867188 7.578125 -19.40625 7.578125 -18.84375 L 7.578125 -16.796875 L 9.859375 -16.796875 C 10.367188 -16.796875 10.789062 -16.625 11.125 -16.28125 C 11.46875 -15.945312 11.640625 -15.523438 11.640625 -15.015625 C 11.640625 -14.515625 11.46875 -14.097656 11.125 -13.765625 C 10.789062 -13.441406 10.367188 -13.28125 9.859375 -13.28125 L 7.578125 -13.28125 L 7.578125 -4.609375 C 7.578125 -4.160156 7.691406 -3.832031 7.921875 -3.625 C 8.160156 -3.425781 8.484375 -3.328125 8.890625 -3.328125 C 9.066406 -3.328125 9.300781 -3.367188 9.59375 -3.453125 C 9.851562 -3.554688 10.101562 -3.609375 10.34375 -3.609375 Z M 10.34375 -3.609375 "/></g></g></g><g fill="#f2f0ef" fill-opacity="1"><g transform="translate(237.461017, 200.624987)"><g><path d="M 11.078125 -17.4375 C 13.179688 -17.4375 14.640625 -16.789062 15.453125 -15.5 C 16.265625 -14.207031 16.671875 -12.421875 16.671875 -10.140625 L 16.671875 -1.953125 C 16.671875 -1.398438 16.488281 -0.9375 16.125 -0.5625 C 15.757812 -0.1875 15.300781 0 14.75 0 C 14.195312 0 13.738281 -0.1875 13.375 -0.5625 C 13.007812 -0.9375 12.828125 -1.398438 12.828125 -1.953125 L 12.828125 -10.140625 C 12.828125 -11.316406 12.597656 -12.238281 12.140625 -12.90625 C 11.679688 -13.582031 10.878906 -13.921875 9.734375 -13.921875 C 8.535156 -13.921875 7.597656 -13.5625 6.921875 -12.84375 C 6.253906 -12.132812 5.921875 -11.234375 5.921875 -10.140625 L 5.921875 -1.953125 C 5.921875 -1.398438 5.738281 -0.9375 5.375 -0.5625 C 5.007812 -0.1875 4.550781 0 4 0 C 3.445312 0 2.988281 -0.1875 2.625 -0.5625 C 2.257812 -0.9375 2.078125 -1.398438 2.078125 -1.953125 L 2.078125 -21.734375 C 2.078125 -22.285156 2.257812 -22.75 2.625 -23.125 C 2.988281 -23.5 3.445312 -23.6875 4 -23.6875 C 4.550781 -23.6875 5.007812 -23.5 5.375 -23.125 C 5.738281 -22.75 5.921875 -22.285156 5.921875 -21.734375 L 5.921875 -14.65625 C 6.492188 -15.425781 7.222656 -16.082031 8.109375 -16.625 C 8.992188 -17.164062 9.984375 -17.4375 11.078125 -17.4375 Z M 11.078125 -17.4375 "/></g></g></g><g fill="#f2f0ef" fill-opacity="1"><g transform="translate(255.120405, 200.624987)"><g><path d="M 17.4375 -8.953125 C 17.414062 -8.441406 17.210938 -8.023438 16.828125 -7.703125 C 16.441406 -7.390625 15.992188 -7.234375 15.484375 -7.234375 L 4.921875 -7.234375 C 5.179688 -5.972656 5.769531 -4.984375 6.6875 -4.265625 C 7.601562 -3.554688 8.640625 -3.203125 9.796875 -3.203125 C 10.671875 -3.203125 11.351562 -3.28125 11.84375 -3.4375 C 12.332031 -3.601562 12.71875 -3.773438 13 -3.953125 C 13.289062 -4.128906 13.488281 -4.25 13.59375 -4.3125 C 13.976562 -4.507812 14.34375 -4.609375 14.6875 -4.609375 C 15.132812 -4.609375 15.515625 -4.445312 15.828125 -4.125 C 16.148438 -3.800781 16.3125 -3.429688 16.3125 -3.015625 C 16.3125 -2.429688 16.015625 -1.90625 15.421875 -1.4375 C 14.828125 -0.945312 14.023438 -0.53125 13.015625 -0.1875 C 12.015625 0.144531 11.003906 0.3125 9.984375 0.3125 C 8.191406 0.3125 6.628906 -0.0546875 5.296875 -0.796875 C 3.960938 -1.546875 2.929688 -2.578125 2.203125 -3.890625 C 1.484375 -5.203125 1.125 -6.675781 1.125 -8.3125 C 1.125 -10.15625 1.503906 -11.769531 2.265625 -13.15625 C 3.035156 -14.539062 4.050781 -15.597656 5.3125 -16.328125 C 6.570312 -17.066406 7.914062 -17.4375 9.34375 -17.4375 C 10.75 -17.4375 12.078125 -17.050781 13.328125 -16.28125 C 14.578125 -15.519531 15.570312 -14.488281 16.3125 -13.1875 C 17.0625 -11.882812 17.4375 -10.472656 17.4375 -8.953125 Z M 9.34375 -13.921875 C 6.863281 -13.921875 5.398438 -12.757812 4.953125 -10.4375 L 13.34375 -10.4375 L 13.34375 -10.65625 C 13.257812 -11.550781 12.820312 -12.316406 12.03125 -12.953125 C 11.238281 -13.597656 10.34375 -13.921875 9.34375 -13.921875 Z M 9.34375 -13.921875 "/></g></g></g><g fill="#f2f0ef" fill-opacity="1"><g transform="translate(272.587842, 200.624987)"><g><path d="M 10.96875 -17.4375 C 11.613281 -17.4375 12.15625 -17.253906 12.59375 -16.890625 C 13.03125 -16.535156 13.25 -16.109375 13.25 -15.609375 C 13.25 -14.953125 13.078125 -14.457031 12.734375 -14.125 C 12.390625 -13.789062 11.984375 -13.625 11.515625 -13.625 C 11.203125 -13.625 10.84375 -13.703125 10.4375 -13.859375 C 10.375 -13.878906 10.226562 -13.921875 10 -13.984375 C 9.769531 -14.046875 9.53125 -14.078125 9.28125 -14.078125 C 8.726562 -14.078125 8.191406 -13.90625 7.671875 -13.5625 C 7.160156 -13.226562 6.738281 -12.710938 6.40625 -12.015625 C 6.082031 -11.316406 5.921875 -10.488281 5.921875 -9.53125 L 5.921875 -1.953125 C 5.921875 -1.398438 5.738281 -0.9375 5.375 -0.5625 C 5.007812 -0.1875 4.550781 0 4 0 C 3.445312 0 2.988281 -0.1875 2.625 -0.5625 C 2.257812 -0.9375 2.078125 -1.398438 2.078125 -1.953125 L 2.078125 -15.171875 C 2.078125 -15.722656 2.257812 -16.1875 2.625 -16.5625 C 2.988281 -16.9375 3.445312 -17.125 4 -17.125 C 4.550781 -17.125 5.007812 -16.9375 5.375 -16.5625 C 5.738281 -16.1875 5.921875 -15.722656 5.921875 -15.171875 L 5.921875 -14.75 C 6.410156 -15.625 7.113281 -16.289062 8.03125 -16.75 C 8.945312 -17.207031 9.925781 -17.4375 10.96875 -17.4375 Z M 10.96875 -17.4375 "/></g></g></g><g fill="#f2f0ef" fill-opacity="1"><g transform="translate(285.38443, 200.624987)"><g><path d="M 19.96875 -2.5 C 20.070312 -2.21875 20.125 -1.960938 20.125 -1.734375 C 20.125 -1.171875 19.941406 -0.710938 19.578125 -0.359375 C 19.222656 -0.015625 18.8125 0.15625 18.34375 0.15625 C 17.957031 0.15625 17.609375 0.0390625 17.296875 -0.1875 C 16.984375 -0.425781 16.742188 -0.75 16.578125 -1.15625 L 14.90625 -5.03125 L 5.375 -5.03125 L 3.71875 -1.125 C 3.5625 -0.71875 3.328125 -0.398438 3.015625 -0.171875 C 2.710938 0.046875 2.378906 0.15625 2.015625 0.15625 C 1.460938 0.15625 1.039062 0.0078125 0.75 -0.28125 C 0.457031 -0.582031 0.3125 -0.988281 0.3125 -1.5 C 0.3125 -1.695312 0.347656 -1.898438 0.421875 -2.109375 L 8.390625 -21.25 C 8.554688 -21.675781 8.804688 -22.003906 9.140625 -22.234375 C 9.484375 -22.472656 9.867188 -22.570312 10.296875 -22.53125 C 10.679688 -22.53125 11.039062 -22.414062 11.375 -22.1875 C 11.707031 -21.96875 11.945312 -21.65625 12.09375 -21.25 Z M 6.9375 -8.703125 L 13.34375 -8.703125 L 10.109375 -16.1875 Z M 6.9375 -8.703125 "/></g></g></g><g fill="#f2f0ef" fill-opacity="1"><g transform="translate(304.739398, 200.624987)"><g><path d="M 10.9375 -17.4375 C 12.414062 -17.4375 13.75 -17.054688 14.9375 -16.296875 C 16.132812 -15.546875 17.078125 -14.5 17.765625 -13.15625 C 18.460938 -11.8125 18.8125 -10.285156 18.8125 -8.578125 C 18.8125 -6.867188 18.46875 -5.335938 17.78125 -3.984375 C 17.101562 -2.628906 16.171875 -1.570312 14.984375 -0.8125 C 13.804688 -0.0625 12.503906 0.3125 11.078125 0.3125 C 10.046875 0.3125 9.078125 0.109375 8.171875 -0.296875 C 7.265625 -0.710938 6.515625 -1.222656 5.921875 -1.828125 L 5.921875 4.453125 C 5.921875 5.003906 5.738281 5.46875 5.375 5.84375 C 5.007812 6.21875 4.550781 6.40625 4 6.40625 C 3.445312 6.40625 2.988281 6.222656 2.625 5.859375 C 2.257812 5.492188 2.078125 5.023438 2.078125 4.453125 L 2.078125 -15.171875 C 2.078125 -15.722656 2.257812 -16.1875 2.625 -16.5625 C 2.988281 -16.9375 3.445312 -17.125 4 -17.125 C 4.550781 -17.125 5.007812 -16.9375 5.375 -16.5625 C 5.738281 -16.1875 5.921875 -15.722656 5.921875 -15.171875 L 5.921875 -15.046875 C 6.429688 -15.679688 7.144531 -16.238281 8.0625 -16.71875 C 8.976562 -17.195312 9.9375 -17.4375 10.9375 -17.4375 Z M 10.46875 -3.203125 C 11.832031 -3.203125 12.953125 -3.710938 13.828125 -4.734375 C 14.703125 -5.753906 15.140625 -7.035156 15.140625 -8.578125 C 15.140625 -10.109375 14.707031 -11.378906 13.84375 -12.390625 C 12.976562 -13.410156 11.851562 -13.921875 10.46875 -13.921875 C 9.082031 -13.921875 7.953125 -13.410156 7.078125 -12.390625 C 6.203125 -11.378906 5.765625 -10.109375 5.765625 -8.578125 C 5.765625 -7.035156 6.203125 -5.753906 7.078125 -4.734375 C 7.953125 -3.710938 9.082031 -3.203125 10.46875 -3.203125 Z M 10.46875 -3.203125 "/></g></g></g><g fill="#f2f0ef" fill-opacity="1"><g transform="translate(323.582483, 200.624987)"><g><path d="M 10.9375 -17.4375 C 12.414062 -17.4375 13.75 -17.054688 14.9375 -16.296875 C 16.132812 -15.546875 17.078125 -14.5 17.765625 -13.15625 C 18.460938 -11.8125 18.8125 -10.285156 18.8125 -8.578125 C 18.8125 -6.867188 18.46875 -5.335938 17.78125 -3.984375 C 17.101562 -2.628906 16.171875 -1.570312 14.984375 -0.8125 C 13.804688 -0.0625 12.503906 0.3125 11.078125 0.3125 C 10.046875 0.3125 9.078125 0.109375 8.171875 -0.296875 C 7.265625 -0.710938 6.515625 -1.222656 5.921875 -1.828125 L 5.921875 4.453125 C 5.921875 5.003906 5.738281 5.46875 5.375 5.84375 C 5.007812 6.21875 4.550781 6.40625 4 6.40625 C 3.445312 6.40625 2.988281 6.222656 2.625 5.859375 C 2.257812 5.492188 2.078125 5.023438 2.078125 4.453125 L 2.078125 -15.171875 C 2.078125 -15.722656 2.257812 -16.1875 2.625 -16.5625 C 2.988281 -16.9375 3.445312 -17.125 4 -17.125 C 4.550781 -17.125 5.007812 -16.9375 5.375 -16.5625 C 5.738281 -16.1875 5.921875 -15.722656 5.921875 -15.171875 L 5.921875 -15.046875 C 6.429688 -15.679688 7.144531 -16.238281 8.0625 -16.71875 C 8.976562 -17.195312 9.9375 -17.4375 10.9375 -17.4375 Z M 10.46875 -3.203125 C 11.832031 -3.203125 12.953125 -3.710938 13.828125 -4.734375 C 14.703125 -5.753906 15.140625 -7.035156 15.140625 -8.578125 C 15.140625 -10.109375 14.707031 -11.378906 13.84375 -12.390625 C 12.976562 -13.410156 11.851562 -13.921875 10.46875 -13.921875 C 9.082031 -13.921875 7.953125 -13.410156 7.078125 -12.390625 C 6.203125 -11.378906 5.765625 -10.109375 5.765625 -8.578125 C 5.765625 -7.035156 6.203125 -5.753906 7.078125 -4.734375 C 7.953125 -3.710938 9.082031 -3.203125 10.46875 -3.203125 Z M 10.46875 -3.203125 "/></g></g></g></svg>